# Blender 3.5.1
# www.blender.org
mtllib 1galpaintshake.mtl
o Cube
v 0.826012 0.838242 -0.827755
v 0.769467 -0.770845 -0.772077
v 0.826012 0.838242 0.827755
v 0.769467 -0.770845 0.772077
v -0.972144 0.941943 -0.837305
v -0.971989 -0.825581 -0.827755
v -0.972144 0.941943 0.846928
v -0.971989 -0.825581 0.827755
v -2.478997 -0.770544 -0.772077
v -2.478997 -0.770544 0.772077
v -2.526529 0.867330 0.827755
v -2.526529 0.867330 -0.827755
v -1.001077 2.221855 0.827755
v -1.001077 2.221855 -0.827755
v -0.114345 2.118472 0.771498
v -0.109825 2.114265 -0.771498
v 0.855249 1.215899 0.771498
v -0.197067 2.195477 0.771498
v -0.197067 2.195477 -0.771498
v 0.855249 1.215899 -0.771498
v -1.780295 2.234362 0.771498
v -2.567075 1.483715 0.771498
v -2.567075 1.483715 -0.771498
v -1.780295 2.234362 -0.771498
v 0.729714 1.332757 0.222346
v 0.786480 1.279914 0.223206
v 0.785787 1.280560 -0.257953
v 0.732438 1.330221 -0.260234
v 0.853256 1.351649 0.223206
v 0.852563 1.352295 -0.257953
v 0.796490 1.404492 0.222346
v 0.799214 1.401955 -0.260234
v 0.818531 0.625360 -0.820389
v 0.818782 0.632515 0.820636
v 0.804274 0.219646 -0.806350
v 0.804436 0.224272 0.806510
vn 0.0385 0.0473 -0.9981
vn 0.0208 -0.0225 0.9995
vn -0.0212 -0.0194 -0.9996
vn 0.0314 -0.9995 -0.0000
vn 0.9994 -0.0351 -0.0000
vn 0.0182 -0.0196 -0.9996
vn -0.9996 -0.0290 -0.0000
vn -0.0243 -0.0223 0.9995
vn -0.0365 -0.9993 -0.0000
vn -0.0366 0.0403 -0.9985
vn 0.9970 -0.0772 -0.0000
vn -0.0402 0.0444 0.9982
vn 0.6814 0.7320 -0.0000
vn 0.0328 0.9995 -0.0000
vn 0.0160 0.9999 -0.0000
vn 0.0420 0.0519 0.9978
vn -0.6903 0.7235 -0.0000
vn -0.9978 -0.0656 -0.0000
vn -0.0081 0.0076 0.9999
vn 0.7319 -0.6814 -0.0020
vn 0.0229 -0.0213 -0.9995
vn -0.7319 0.6813 -0.0077
vt 0.625000 0.500000
vt 0.375000 0.500000
vt 0.655000 0.475000
vt 0.497500 0.420000
vt 0.625000 0.750000
vt 0.405000 0.475000
vt 0.375000 0.750000
vt 0.625000 0.250000
vt 0.375000 0.250000
vt 0.125000 0.500000
vt 0.655000 0.725000
vt 0.612500 0.545000
vt 0.527500 0.565000
vt 0.497500 0.670000
vt 0.405000 0.725000
vt 0.362500 0.545000
vt 0.125000 0.750000
vt 0.375000 0.250000
vt 0.292500 0.575000
vt 0.125000 0.500000
vt 0.292500 0.325000
vt 0.362500 0.545000
vt 0.125000 0.750000
vt 0.542500 0.325000
vt 0.612500 0.545000
vt 0.527500 0.565000
vt 0.570000 0.255000
vt 0.542500 0.575000
vt 0.625000 0.250000
vt 0.570000 0.505000
vt 0.527500 0.565000
vt 0.875000 0.750000
vt 0.497500 0.670000
vt 0.625000 0.250000
vt 0.875000 0.500000
vt 0.395141 0.911214
vt 0.497500 0.564396
vt 0.769396 0.750000
vt 0.625000 0.356277
vt 0.645097 0.906468
vt 0.768723 0.500000
vt 0.497500 0.420000
vt 0.625000 0.750000
vt 0.781715 0.750000
vt 0.395342 0.923532
vt 0.497500 0.576715
vt 0.625000 0.343285
vt 0.781715 0.500000
vt 0.645308 0.919459
vt 0.625000 0.500000
vt 0.527500 0.565000
vt 0.875000 0.750000
vt 0.560000 0.287500
vt 0.527500 0.565000
vt 0.560000 0.287500
vt 0.570000 0.255000
vt 0.625000 0.250000
vt 0.560000 0.537500
vt 0.570000 0.505000
vt 0.625000 0.250000
vt 0.875000 0.500000
vt 0.560000 0.537500
vt 0.643695 0.661025
vt 0.538695 0.921025
vt 0.635241 0.661165
vt 0.530241 0.921165
vt 0.635345 0.583206
vt 0.530345 0.843206
vt 0.643289 0.582836
vt 0.538289 0.842836
vt 0.530241 0.921165
vt 0.530345 0.843206
vt 0.538695 0.921025
vt 0.538289 0.842836
vt 0.591925 0.500000
vt 0.998890 0.202144
vt 0.623037 0.475000
vt 0.593037 0.750000
vt 0.000770 0.202102
vt 0.528890 0.500000
vt 1.000756 0.003669
vt 0.559609 0.475000
vt 0.529609 0.750000
vt 0.003543 0.000770
s 0
usemtl Material
f 1/1/1 5/8/1 14/34/1 19/47/1 16/39/1 20/50/1
f 4/6/2 36/82/2 34/77/2 3/3/2 7/11/2 8/15/2
f 5/8/3 6/9/3 9/18/3 12/29/3
f 6/10/4 2/2/4 4/7/4 8/17/4
f 2/2/5 35/80/5 36/83/5 4/7/5
f 6/9/6 5/8/6 1/1/6 33/75/6 35/80/6 2/2/6
f 10/21/7 11/24/7 12/28/7 9/19/7
f 8/16/8 7/12/8 11/25/8 10/22/8
f 6/10/9 8/17/9 10/23/9 9/20/9
f 5/8/10 12/29/10 23/57/10 24/60/10 14/34/10
f 3/5/11 1/1/11 20/50/11 17/43/11
f 11/26/12 7/13/12 13/31/12 21/51/12 22/54/12
f 30/72/13 32/74/13 31/73/13 29/71/13
f 19/48/14 14/35/14 13/32/14 18/44/14
f 13/32/15 14/35/15 24/61/15 21/52/15
f 19/49/13 18/45/13 15/36/13 16/40/13
f 7/14/16 3/4/16 17/42/16 15/37/16 18/46/16 13/33/16
f 21/53/17 24/62/17 23/58/17 22/55/17
f 12/30/18 11/27/18 22/56/18 23/59/18
f 16/41/13 15/38/13 17/43/13 26/65/13 25/63/13 28/69/13 20/50/13
f 20/50/13 28/69/13 27/67/13 26/65/13 17/43/13
f 25/64/19 26/66/19 29/71/19 31/73/19
f 26/66/20 27/68/20 30/72/20 29/71/20
f 27/68/21 28/70/21 32/74/21 30/72/21
f 28/70/22 25/64/22 31/73/22 32/74/22
f 34/78/5 33/75/5 1/1/5 3/5/5
f 36/84/5 35/81/5 33/76/5 34/79/5
